<svg width="115" height="115" viewBox="0 0 115 115" fill="none" xmlns="http://www.w3.org/2000/svg">
<path fill-rule="evenodd" clip-rule="evenodd" d="M46.7822 48.4174C41.6848 48.4174 37.5526 52.5482 37.5526 57.6438C37.5526 62.7394 41.6848 66.8702 46.7822 66.8702H56.2612V57.6438V48.4174H46.7822ZM69.9809 43.9289L70.2303 43.9289C75.3277 43.9289 79.4599 39.7981 79.4599 34.7025C79.4599 29.6069 75.3277 25.4761 70.2303 25.4761H60.7513V43.9289L69.9809 43.9289ZM77.7539 46.1731C81.4859 43.722 83.95 39.4999 83.95 34.7025C83.95 27.1279 77.8075 20.9875 70.2303 20.9875H60.7513H58.5063H56.2612H46.7822C39.205 20.9875 33.0625 27.1279 33.0625 34.7025C33.0625 39.4999 35.5266 43.722 39.2586 46.1731C35.5266 48.6242 33.0625 52.8464 33.0625 57.6438C33.0625 62.4412 35.5266 66.6634 39.2586 69.1145C35.5266 71.5655 33.0625 75.7877 33.0625 80.5851C33.0625 88.1754 39.2828 94.3 46.8442 94.3C54.4745 94.3 60.7513 88.1196 60.7513 80.4604V71.3587V69.1145V67.7915C63.1883 70.0077 66.4268 71.3587 69.9809 71.3587H70.2303C77.8075 71.3587 83.95 65.2183 83.95 57.6438C83.95 52.8464 81.4859 48.6242 77.7539 46.1731ZM70.2303 48.4174L69.9809 48.4174C64.8835 48.4174 60.7513 52.5482 60.7513 57.6438C60.7513 62.7394 64.8835 66.8702 69.9809 66.8702H70.2303C75.3277 66.8702 79.4599 62.7394 79.4599 57.6438C79.4599 52.5482 75.3277 48.4174 70.2303 48.4174ZM37.5526 80.5851C37.5526 75.4895 41.6848 71.3587 46.7822 71.3587H56.2612V80.4604C56.2612 85.6092 52.0262 89.8115 46.8442 89.8115C41.7311 89.8115 37.5526 85.665 37.5526 80.5851ZM56.2612 43.9289H46.7822C41.6848 43.9289 37.5526 39.7981 37.5526 34.7025C37.5526 29.6069 41.6848 25.4761 46.7822 25.4761H56.2612V43.9289Z" fill="white"/>
</svg>
